HIERARCHY
ROOT Hips
{
	OFFSET 0.000000 0.000000 0.000000
	CHANNELS 6 Xposition Yposition Zposition Xrotation Yrotation Zrotation
	JOINT LeftUpLeg_virtual
	{
		OFFSET 0.000000 0.000000 0.000000
		CHANNELS 3 Xrotation Yrotation Zrotation
		JOINT LeftUpLeg
		{
			OFFSET 10.205400 -3.823500 0.155100
			CHANNELS 3 Xrotation Yrotation Zrotation
			JOINT LeftLeg
			{
				OFFSET 0.708757 -12.982077 0.567790
				CHANNELS 3 Xrotation Yrotation Zrotation
				JOINT LeftFoot
				{
					OFFSET -0.708756 -10.717838 -2.184338
					CHANNELS 3 Xrotation Yrotation Zrotation
					JOINT LeftToeBase
					{
						OFFSET 0.108149 -7.191104 7.560241
						CHANNELS 3 Xrotation Yrotation Zrotation
						JOINT LeftToe_End
						{
							OFFSET 0.070230 0.081724 4.490308
							CHANNELS 3 Xrotation Yrotation Zrotation
							End Site
							{
								OFFSET 0 0 0
							}
						}
					}
				}
			}
		}
	}
	JOINT RightUpLeg_virtual
	{
		OFFSET 0.000000 0.000000 0.000000
		CHANNELS 3 Xrotation Yrotation Zrotation
		JOINT RightUpLeg
		{
			OFFSET -10.205400 -3.823500 0.005500
			CHANNELS 3 Xrotation Yrotation Zrotation
			JOINT RightLeg
			{
				OFFSET -0.708756 -12.982134 0.610632
				CHANNELS 3 Xrotation Yrotation Zrotation
				JOINT RightFoot
				{
					OFFSET 0.708754 -10.717769 -1.945823
					CHANNELS 3 Xrotation Yrotation Zrotation
					JOINT RightToeBase
					{
						OFFSET -0.108140 -7.191069 7.372968
						CHANNELS 3 Xrotation Yrotation Zrotation
						JOINT RightToe_End
						{
							OFFSET -0.070227 0.081735 4.479403
							CHANNELS 3 Xrotation Yrotation Zrotation
							End Site
							{
								OFFSET 0 0 0
							}
						}
					}
				}
			}
		}
	}
	JOINT Spine_virtual
	{
		OFFSET 0.000000 0.000000 0.000000
		CHANNELS 3 Xrotation Yrotation Zrotation
		JOINT Spine
		{
			OFFSET 0.000000 6.876099 0.125700
			CHANNELS 3 Xrotation Yrotation Zrotation
			JOINT Spine1
			{
				OFFSET 0.000000 5.730043 0.104720
				CHANNELS 3 Xrotation Yrotation Zrotation
				JOINT Spine1_split
				{
					OFFSET 0.000000 5.730043 0.104720
					CHANNELS 3 Xrotation Yrotation Zrotation
					JOINT Spine2
					{
						OFFSET 0.000000 5.730043 0.104720
						CHANNELS 3 Xrotation Yrotation Zrotation
						JOINT Neck_virtual
						{
							OFFSET 0.000000 0.000000 0.000000
							CHANNELS 3 Xrotation Yrotation Zrotation
							JOINT Neck
							{
								OFFSET 0.000000 10.314075 0.188496
								CHANNELS 3 Xrotation Yrotation Zrotation
								JOINT Head
								{
									OFFSET 0.000000 7.643700 -2.377400
									CHANNELS 3 Xrotation Yrotation Zrotation
									JOINT HeadTop_End
									{
										OFFSET 0.000000 43.788605 -13.619600
										CHANNELS 3 Xrotation Yrotation Zrotation
										End Site
										{
											OFFSET 0 0 0
										}
									}
								}
							}
						}
						JOINT LeftShoulder_virtual
						{
							OFFSET 0.000000 0.000000 0.000000
							CHANNELS 3 Xrotation Yrotation Zrotation
							JOINT LeftShoulder
							{
								OFFSET 2.196100 4.412489 0.087492
								CHANNELS 3 Xrotation Yrotation Zrotation
								JOINT LeftShoulder_split
								{
									OFFSET 2.196100 4.412489 0.087492
									CHANNELS 3 Xrotation Yrotation Zrotation
									JOINT LeftArm
									{
										OFFSET 8.771219 -2.981674 -0.026999
										CHANNELS 3 Xrotation Yrotation Zrotation
										JOINT LeftForeArm
										{
											OFFSET 8.512804 0.000000 -0.000000
											CHANNELS 3 Xrotation Yrotation Zrotation
											JOINT LeftHand
											{
												OFFSET 18.484802 0.000000 -0.000000
												CHANNELS 3 Xrotation Yrotation Zrotation
												End Site
												{
													OFFSET 0 0 0
												}
											}
										}
									}
								}
							}
						}
						JOINT RightShoulder_virtual
						{
							OFFSET 0.000000 0.000000 0.000000
							CHANNELS 3 Xrotation Yrotation Zrotation
							JOINT RightShoulder
							{
								OFFSET -2.196100 4.412496 0.070690
								CHANNELS 3 Xrotation Yrotation Zrotation
								JOINT RightShoulder_split
								{
									OFFSET -2.196100 4.412496 0.070690
									CHANNELS 3 Xrotation Yrotation Zrotation
									JOINT RightArm
									{
										OFFSET -8.771282 -2.981682 -0.094208
										CHANNELS 3 Xrotation Yrotation Zrotation
										JOINT RightForeArm
										{
											OFFSET -8.494598 0.000000 0.000000
											CHANNELS 3 Xrotation Yrotation Zrotation
											JOINT RightHand
											{
												OFFSET -18.483803 0.000000 0.000001
												CHANNELS 3 Xrotation Yrotation Zrotation
												End Site
												{
													OFFSET 0 0 0
												}
											}
										}
									}
								}
							}
						}
					}
				}
			}
		}
	}
}
MOTION
Frames: 4
Frame Time: 0.03333333
0.188993 28.182964 3.063044 0.000000 0.000000 0.000000 13.830464 -76.821487 10.122504 -22.224259 51.108478 44.315555 61.134660 4.068003 -12.839981 -37.849025 7.743644 9.538580 -12.145503 3.372366 -5.680781 0.000000 0.000000 0.000000 8.275695 -65.389021 5.117539 -24.846140 -0.337631 -26.592536 30.143858 7.828955 -5.521321 -17.577707 -0.773066 38.372740 -11.751026 -2.628818 -4.227856 0.000000 0.000000 0.000000 -1.864296 -73.317457 -2.512617 11.597007 -12.390583 12.643338 -3.918006 -10.656965 5.123453 -1.070547 -2.092417 0.894032 0.000000 0.000000 0.000000 -8.306162 -11.149883 5.374805 3.144900 39.281750 1.092199 9.931069 23.465183 -5.457758 0.000000 0.000000 0.000000 -9.664376 -11.134422 5.263340 5.432660 -19.639733 17.961468 8.179291 1.827637 -6.407487 -2.157487 -15.058942 5.809233 0.483249 -34.442113 -1.928614 0.000000 0.000000 0.000000 -11.451954 -11.679897 4.948023 4.344729 -19.722253 8.140260 4.338842 -0.305339 -0.886821 -55.480213 3.852510 -10.102835 -9.796856 49.938296 13.930371 0.000000 0.000000 0.000000 
-0.271507 28.875261 3.535830 0.000000 0.000000 0.000000 6.500265 -74.848006 3.127140 -14.751706 52.468741 38.742059 55.518947 6.704853 -11.455377 -42.247695 10.949015 11.784732 -6.314465 3.833715 -8.928508 0.000000 0.000000 0.000000 3.375683 -63.369969 0.550484 -17.076506 -1.620694 -25.214827 29.698926 4.195218 -4.487086 -23.179079 -5.620283 30.813610 -13.462108 -5.420708 -1.183207 0.000000 0.000000 0.000000 -5.515939 -71.577985 -6.849013 10.106057 -12.234337 12.193430 -4.689258 -10.931117 5.162695 -0.291538 -1.844406 1.080405 0.000000 0.000000 0.000000 -9.555289 -11.459546 5.331294 4.293756 35.355685 3.538648 10.247749 20.953342 -2.793705 0.000000 0.000000 0.000000 -11.079696 -11.340879 5.129554 6.549704 -20.832338 26.397038 8.161876 1.131284 -6.999530 -5.715938 -25.177725 10.146780 1.998754 -26.802257 0.693143 0.000000 0.000000 0.000000 -13.167737 -12.021423 4.856103 2.418115 -19.854858 5.838974 4.592404 -1.285528 -0.301682 -59.471803 6.622913 -12.839848 -8.285328 48.324951 14.364159 0.000000 0.000000 0.000000 
-0.653198 29.497406 4.121109 0.000000 0.000000 0.000000 0.234730 -71.305256 -2.187450 -7.617773 51.509844 33.258015 50.313322 5.688683 -8.498432 -41.971051 13.345881 7.909462 -4.810175 3.950306 -11.031945 0.000000 0.000000 0.000000 -1.302936 -61.615751 -2.977119 -10.776248 -0.980756 -24.501231 31.526367 -1.289824 -3.074696 -24.290519 -9.485093 20.165324 -16.299159 -9.835227 5.801705 0.000000 0.000000 0.000000 -6.428872 -68.745683 -8.059066 8.642239 -11.898657 11.277646 -5.608834 -10.879123 4.864739 1.258075 -1.820870 0.559409 0.000000 0.000000 0.000000 -10.766687 -11.397639 4.985457 6.417675 31.112242 5.253772 10.405449 19.157849 -0.693683 0.000000 0.000000 0.000000 -12.574568 -11.339158 4.833704 7.088674 -20.129303 35.090879 7.264502 1.188162 -7.349586 -12.922707 -34.479611 11.028718 3.366855 -21.384462 3.047136 0.000000 0.000000 0.000000 -14.916073 -12.134500 4.581004 0.387343 -20.029115 2.641944 3.940767 -2.243068 0.235042 -63.648416 8.927902 -14.546167 -5.469687 46.359404 13.613452 0.000000 0.000000 0.000000 
-0.975533 29.929220 4.825495 0.000000 0.000000 0.000000 -3.439842 -66.316902 -4.787844 -1.954855 49.476207 29.029837 45.807459 2.413900 -5.099937 -38.008401 14.451821 0.066644 -7.486296 3.995556 -11.722696 0.000000 0.000000 0.000000 -5.056182 -59.873985 -5.170653 -6.503916 1.513278 -24.824999 35.908890 -6.612388 -1.212200 -17.707814 -12.240367 11.066037 -22.724748 -15.755138 13.959757 0.000000 0.000000 0.000000 -5.595650 -64.982010 -7.109841 7.183207 -11.400512 9.801932 -6.685459 -10.480206 4.105578 2.179800 -2.140832 0.021239 0.000000 0.000000 0.000000 -11.815522 -10.932568 4.188018 8.998915 26.800148 6.254170 10.787207 17.941625 0.448714 0.000000 0.000000 0.000000 -14.035071 -11.027595 4.238408 6.500177 -17.794212 42.847180 5.938552 2.907965 -6.844449 -24.708213 -41.158167 7.545074 4.058570 -19.518866 4.681809 0.000000 0.000000 0.000000 -16.589817 -11.958466 3.925019 -1.738240 -20.424289 -2.140324 2.527783 -2.672481 0.354779 -67.116178 9.220388 -15.659534 -2.084689 44.878318 11.938232 0.000000 0.000000 0.000000 
